<svg width="40" height="20" viewBox="0 0 40 20" fill="none" xmlns="http://www.w3.org/2000/svg">
<path d="M0.5625 17V8.27273H6.69886V10.1818H2.93182V11.6818H6.32386V13.5909H2.93182V17H0.5625ZM10.1328 17.0994C9.54096 17.0994 9.03433 16.9822 8.61293 16.7479C8.19152 16.5111 7.86837 16.1821 7.64347 15.7607C7.41856 15.3369 7.30611 14.8456 7.30611 14.2869C7.30611 13.7282 7.41856 13.2382 7.64347 12.8168C7.86837 12.393 8.19152 12.0639 8.61293 11.8295C9.03433 11.5928 9.54096 11.4744 10.1328 11.4744C10.7247 11.4744 11.2313 11.5928 11.6527 11.8295C12.0741 12.0639 12.3973 12.393 12.6222 12.8168C12.8471 13.2382 12.9595 13.7282 12.9595 14.2869C12.9595 14.8456 12.8471 15.3369 12.6222 15.7607C12.3973 16.1821 12.0741 16.5111 11.6527 16.7479C11.2313 16.9822 10.7247 17.0994 10.1328 17.0994ZM10.147 15.6506C10.3127 15.6506 10.456 15.5949 10.5767 15.4837C10.6974 15.3724 10.791 15.2138 10.8572 15.0078C10.9235 14.8018 10.9567 14.5568 10.9567 14.2727C10.9567 13.9863 10.9235 13.7412 10.8572 13.5376C10.791 13.3317 10.6974 13.1731 10.5767 13.0618C10.456 12.9505 10.3127 12.8949 10.147 12.8949C9.97183 12.8949 9.8215 12.9505 9.69602 13.0618C9.57055 13.1731 9.47467 13.3317 9.40838 13.5376C9.34209 13.7412 9.30895 13.9863 9.30895 14.2727C9.30895 14.5568 9.34209 14.8018 9.40838 15.0078C9.47467 15.2138 9.57055 15.3724 9.69602 15.4837C9.8215 15.5949 9.97183 15.6506 10.147 15.6506ZM17.0078 17.1193C16.2976 17.1193 15.6896 16.9787 15.1839 16.6974C14.6783 16.4134 14.2905 16.0185 14.0206 15.5128C13.7507 15.0043 13.6158 14.4148 13.6158 13.7443C13.6158 13.0739 13.7507 12.4858 14.0206 11.9801C14.2905 11.4716 14.6783 11.0767 15.1839 10.7955C15.6896 10.5114 16.2976 10.3693 17.0078 10.3693C17.718 10.3693 18.326 10.5114 18.8317 10.7955C19.3374 11.0767 19.7251 11.4716 19.995 11.9801C20.2649 12.4858 20.3999 13.0739 20.3999 13.7443C20.3999 14.4148 20.2649 15.0043 19.995 15.5128C19.7251 16.0185 19.3374 16.4134 18.8317 16.6974C18.326 16.9787 17.718 17.1193 17.0078 17.1193ZM17.0249 15.3807C17.2237 15.3807 17.3956 15.3139 17.5405 15.1804C17.6854 15.0469 17.7976 14.8565 17.8771 14.6094C17.9567 14.3622 17.9964 14.0682 17.9964 13.7273C17.9964 13.3835 17.9567 13.0895 17.8771 12.8452C17.7976 12.598 17.6854 12.4077 17.5405 12.2741C17.3956 12.1406 17.2237 12.0739 17.0249 12.0739C16.8146 12.0739 16.6342 12.1406 16.4837 12.2741C16.3331 12.4077 16.218 12.598 16.1385 12.8452C16.0589 13.0895 16.0192 13.3835 16.0192 13.7273C16.0192 14.0682 16.0589 14.3622 16.1385 14.6094C16.218 14.8565 16.3331 15.0469 16.4837 15.1804C16.6342 15.3139 16.8146 15.3807 17.0249 15.3807ZM23.7237 17.0852C23.2578 17.0852 22.8288 16.9631 22.4368 16.7188C22.0476 16.4744 21.7351 16.1037 21.4993 15.6065C21.2663 15.1094 21.1499 14.483 21.1499 13.7273C21.1499 12.9375 21.272 12.2955 21.5163 11.8011C21.7635 11.3068 22.0817 10.9446 22.4709 10.7145C22.8629 10.4844 23.2749 10.3693 23.7067 10.3693C24.0305 10.3693 24.3146 10.4261 24.5589 10.5398C24.8033 10.6506 25.0078 10.7997 25.1726 10.9872C25.3374 11.1719 25.4624 11.375 25.5476 11.5966H25.5817V8.27273H27.9339V17H25.5987V15.9261H25.5476C25.4567 16.1477 25.326 16.3466 25.1555 16.5227C24.9879 16.696 24.7834 16.8338 24.5419 16.9361C24.3033 17.0355 24.0305 17.0852 23.7237 17.0852ZM24.593 15.2784C24.8089 15.2784 24.9936 15.2159 25.147 15.0909C25.3033 14.9631 25.4226 14.7841 25.505 14.554C25.5902 14.321 25.6328 14.0455 25.6328 13.7273C25.6328 13.4034 25.5902 13.1264 25.505 12.8963C25.4226 12.6634 25.3033 12.4858 25.147 12.3636C24.9936 12.2386 24.8089 12.1761 24.593 12.1761C24.3771 12.1761 24.1925 12.2386 24.0391 12.3636C23.8885 12.4858 23.772 12.6634 23.6896 12.8963C23.6101 13.1264 23.5703 13.4034 23.5703 13.7273C23.5703 14.0511 23.6101 14.3295 23.6896 14.5625C23.772 14.7926 23.8885 14.9702 24.0391 15.0952C24.1925 15.2173 24.3771 15.2784 24.593 15.2784ZM29.0888 17V10.4545H31.4411V17H29.0888ZM30.2649 9.77273C29.9467 9.77273 29.674 9.66761 29.4467 9.45739C29.2195 9.24716 29.1058 8.99432 29.1058 8.69886C29.1058 8.40341 29.2195 8.15057 29.4467 7.94034C29.674 7.73011 29.9467 7.625 30.2649 7.625C30.5859 7.625 30.8587 7.73011 31.0831 7.94034C31.3104 8.15057 31.424 8.40341 31.424 8.69886C31.424 8.99432 31.3104 9.24716 31.0831 9.45739C30.8587 9.66761 30.5859 9.77273 30.2649 9.77273ZM35.7759 17.1193C35.0771 17.1193 34.4748 16.9858 33.9691 16.7188C33.4663 16.4489 33.0785 16.0625 32.8058 15.5597C32.5359 15.054 32.4009 14.4489 32.4009 13.7443C32.4009 13.0682 32.5373 12.4773 32.81 11.9716C33.0827 11.4659 33.4677 11.0724 33.9648 10.7912C34.462 10.5099 35.0487 10.3693 35.7248 10.3693C36.2191 10.3693 36.6665 10.446 37.0671 10.5994C37.4677 10.7528 37.81 10.9759 38.0941 11.2685C38.3782 11.5582 38.5969 11.9105 38.7504 12.3253C38.9038 12.7401 38.9805 13.2074 38.9805 13.7273V14.2727H33.1339V12.9773H36.8157C36.8129 12.7898 36.7646 12.625 36.6708 12.483C36.5799 12.3381 36.4563 12.2259 36.3001 12.1463C36.1467 12.0639 35.9719 12.0227 35.7759 12.0227C35.5856 12.0227 35.4109 12.0639 35.2518 12.1463C35.0927 12.2259 34.9648 12.3366 34.8683 12.4787C34.7745 12.6207 34.7248 12.7869 34.7191 12.9773V14.375C34.7191 14.5852 34.7631 14.7727 34.8512 14.9375C34.9393 15.1023 35.0657 15.2315 35.2305 15.3253C35.3952 15.419 35.5941 15.4659 35.8271 15.4659C35.989 15.4659 36.1367 15.4432 36.2702 15.3977C36.4066 15.3523 36.5231 15.2869 36.6197 15.2017C36.7163 15.1136 36.7873 15.0085 36.8327 14.8864H38.9805C38.9066 15.3409 38.7319 15.7358 38.4563 16.071C38.1808 16.4034 37.8157 16.6619 37.3612 16.8466C36.9094 17.0284 36.381 17.1193 35.7759 17.1193Z" fill="#FF7101"/>
<path d="M10.125 10.0994C9.53314 10.0994 9.02652 9.98224 8.60511 9.74787C8.18371 9.51113 7.86056 9.18205 7.63565 8.76065C7.41075 8.33688 7.2983 7.84564 7.2983 7.28693C7.2983 6.72822 7.41075 6.23816 7.63565 5.81676C7.86056 5.39299 8.18371 5.06392 8.60511 4.82955C9.02652 4.5928 9.53314 4.47443 10.125 4.47443C10.7169 4.47443 11.2235 4.5928 11.6449 4.82955C12.0663 5.06392 12.3894 5.39299 12.6143 5.81676C12.8393 6.23816 12.9517 6.72822 12.9517 7.28693C12.9517 7.84564 12.8393 8.33688 12.6143 8.76065C12.3894 9.18205 12.0663 9.51113 11.6449 9.74787C11.2235 9.98224 10.7169 10.0994 10.125 10.0994ZM10.1392 8.65057C10.3049 8.65057 10.4482 8.59493 10.5689 8.48366C10.6896 8.3724 10.7831 8.21378 10.8494 8.00781C10.9157 7.80185 10.9489 7.55682 10.9489 7.27273C10.9489 6.98627 10.9157 6.74124 10.8494 6.53764C10.7831 6.33168 10.6896 6.17306 10.5689 6.06179C10.4482 5.95052 10.3049 5.89489 10.1392 5.89489C9.96402 5.89489 9.81368 5.95052 9.68821 6.06179C9.56274 6.17306 9.46686 6.33168 9.40057 6.53764C9.33428 6.74124 9.30114 6.98627 9.30114 7.27273C9.30114 7.55682 9.33428 7.80185 9.40057 8.00781C9.46686 8.21378 9.56274 8.3724 9.68821 8.48366C9.81368 8.59493 9.96402 8.65057 10.1392 8.65057Z" fill="#FF7101"/>
<path d="M13 11C13 12.1046 12.5523 13 12 13C11.4477 13 11.5 12.1046 11.5 11C11.5 9.89543 11.4477 9 12 9C12.5523 9 13 9.89543 13 11Z" fill="#FF7101"/>
<rect x="12.3893" y="4" width="1" height="2" rx="0.5" transform="rotate(44 12.3893 4)" fill="#FF7101"/>
</svg>
